<?xml version="1.0" standalone="no"?><!DOCTYPE svg PUBLIC "-//W3C//DTD SVG 1.1//EN" "http://www.w3.org/Graphics/SVG/1.1/DTD/svg11.dtd"><svg t="1480838999179" class="icon" style="" viewBox="0 0 1024 1024" version="1.1" xmlns="http://www.w3.org/2000/svg" p-id="1833" xmlns:xlink="http://www.w3.org/1999/xlink" width="200" height="200"><defs><style type="text/css"></style></defs><path d="M853.150332 473.130737 369.683179 473.130737c-22.230304 0-40.289612 18.049075-40.289612 40.288588 0 22.239514 18.059308 40.289612 40.289612 40.289612l483.467153 0c22.229281 0 40.288588-18.050098 40.288588-40.289612C893.43892 491.179812 875.378589 473.130737 853.150332 473.130737M369.683179 311.974337l483.467153 0c22.229281 0 40.288588-18.049075 40.288588-40.288588 0-22.239514-18.059308-40.289612-40.288588-40.289612L369.683179 231.396137c-22.230304 0-40.289612 18.049075-40.289612 40.289612C329.393567 293.925263 347.452875 311.974337 369.683179 311.974337M853.150332 714.863291 369.683179 714.863291c-22.230304 0-40.289612 18.050098-40.289612 40.289612 0 22.23849 18.059308 40.288588 40.289612 40.288588l483.467153 0c22.229281 0 40.288588-18.050098 40.288588-40.288588C893.43892 732.913389 875.378589 714.863291 853.150332 714.863291M208.526779 231.396137l-40.288588 0c-22.230304 0-40.289612 18.049075-40.289612 40.289612 0 22.239514 18.059308 40.288588 40.289612 40.288588l40.288588 0c22.230304 0 40.289612-18.049075 40.289612-40.288588C248.81639 249.445212 230.757083 231.396137 208.526779 231.396137M208.526779 473.130737l-40.288588 0c-22.230304 0-40.289612 18.049075-40.289612 40.288588 0 22.239514 18.059308 40.289612 40.289612 40.289612l40.288588 0c22.230304 0 40.289612-18.050098 40.289612-40.289612C248.81639 491.179812 230.757083 473.130737 208.526779 473.130737M208.526779 714.863291l-40.288588 0c-22.230304 0-40.289612 18.050098-40.289612 40.289612 0 22.23849 18.059308 40.288588 40.289612 40.288588l40.288588 0c22.230304 0 40.289612-18.050098 40.289612-40.288588C248.81639 732.913389 230.757083 714.863291 208.526779 714.863291" p-id="1834" fill="#707070"></path></svg>